<svg width="17" height="17" viewBox="0 0 17 17" fill="none" xmlns="http://www.w3.org/2000/svg">
<g clip-path="url(#clip0_1_77)">
<path d="M4.62817 3.82831V2.82227C4.62817 2.5488 4.73681 2.28652 4.93019 2.09315C5.12356 1.89977 5.38583 1.79114 5.65931 1.79114H14.5958C14.8693 1.79114 15.1315 1.89977 15.3249 2.09315C15.5183 2.28652 15.6269 2.5488 15.6269 2.82227V11.7587C15.6269 12.0322 15.5183 12.2945 15.3249 12.4879C15.1315 12.6812 14.8693 12.7899 14.5958 12.7899H13.5705" stroke="white" stroke-width="1.10701"/>
<path d="M12.5334 3.85326H2.90955C2.34007 3.85326 1.87842 4.31491 1.87842 4.88439V14.5083C1.87842 15.0778 2.34007 15.5394 2.90955 15.5394H12.5334C13.1029 15.5394 13.5646 15.0778 13.5646 14.5083V4.88439C13.5646 4.31491 13.1029 3.85326 12.5334 3.85326Z" stroke="white" stroke-width="1.10701" stroke-linejoin="round"/>
<path d="M6.84155 8.36065L8.66047 6.4668C9.15954 5.96808 9.97929 5.97873 10.4918 6.49155C11.0046 7.00368 11.0156 7.82377 10.5165 8.32284L9.86002 9.01817" stroke="white" stroke-width="1.10701" stroke-linecap="round" stroke-linejoin="round"/>
<path d="M5.13198 10.2988C4.95669 10.4741 4.59407 10.8247 4.59407 10.8247C4.09501 11.3231 4.08126 12.2126 4.59407 12.7254C5.1062 13.2376 5.9263 13.2486 6.42536 12.7495L8.20028 11.1382" stroke="white" stroke-width="1.10701" stroke-linecap="round" stroke-linejoin="round"/>
<path d="M6.91839 10.1539C6.6902 9.927 6.55218 9.62495 6.53 9.30391C6.51677 9.12384 6.54239 8.94303 6.60513 8.77373C6.66787 8.60442 6.76626 8.45058 6.89364 8.32262" stroke="white" stroke-width="1.10701" stroke-linecap="round" stroke-linejoin="round"/>
<path d="M8.17603 9.30565C8.68816 9.81812 8.6995 10.6382 8.20043 11.1369" stroke="white" stroke-width="1.10701" stroke-linecap="round" stroke-linejoin="round"/>
</g>
<defs>
<clipPath id="clip0_1_77">
<rect x="0.503906" y="0.416016" width="16.4981" height="16.4981" rx="1.83312" fill="white"/>
</clipPath>
</defs>
</svg>
